<?xml version="1.0" encoding="UTF-8" standalone="no"?>
<svg
   xmlns:dc="http://purl.org/dc/elements/1.1/"
   xmlns:cc="http://creativecommons.org/ns#"
   xmlns:rdf="http://www.w3.org/1999/02/22-rdf-syntax-ns#"
   xmlns:svg="http://www.w3.org/2000/svg"
   xmlns="http://www.w3.org/2000/svg"
   xmlns:sodipodi="http://sodipodi.sourceforge.net/DTD/sodipodi-0.dtd"
   xmlns:inkscape="http://www.inkscape.org/namespaces/inkscape"
   height="355.54501"
   id="Layer_1"
   version="1.1"
   viewBox="0 0 472.80017 355.54501"
   width="472.80017"
   xml:space="preserve"
   sodipodi:docname="if_d303_14_2089616.svg"
   inkscape:version="0.92.2 (5c3e80d, 2017-08-06)"><metadata
     id="metadata47"><rdf:RDF><cc:Work
         rdf:about=""><dc:format>image/svg+xml</dc:format><dc:type
           rdf:resource="http://purl.org/dc/dcmitype/StillImage" /><dc:title></dc:title></cc:Work></rdf:RDF></metadata><defs
     id="defs45" /><sodipodi:namedview
     pagecolor="#ffffff"
     bordercolor="#666666"
     borderopacity="1"
     objecttolerance="10"
     gridtolerance="10"
     guidetolerance="10"
     inkscape:pageopacity="0"
     inkscape:pageshadow="2"
     inkscape:window-width="1920"
     inkscape:window-height="1016"
     id="namedview43"
     showgrid="false"
     fit-margin-top="6"
     fit-margin-left="6"
     fit-margin-right="6"
     fit-margin-bottom="6"
     inkscape:zoom="0.4609375"
     inkscape:cx="245.07824"
     inkscape:cy="169.09554"
     inkscape:window-x="0"
     inkscape:window-y="27"
     inkscape:window-maximized="1"
     inkscape:current-layer="Layer_1" /><g
     id="g40"
     transform="translate(-19.59973,-78.228506)"><path
       d="m 254.899,407.654 c 10.225,-9.432 15.984,-20.575 15.15,-30.257 0.918,-0.25 1.878,-0.543 2.796,-0.835 l -0.167,-0.584 -4.215,-16.318 c -2.587,0.793 -5.175,1.586 -7.804,2.337 -4.424,1.294 -8.848,2.504 -13.313,3.589 -1.753,0.459 -3.506,0.876 -5.259,1.294 -0.835,0.167 -1.628,0.376 -2.421,0.543 -1.795,0.417 -3.547,0.793 -5.342,1.168 -1.836,0.376 -3.631,0.751 -5.467,1.127 -1.461,0.25 -2.88,0.543 -4.299,0.793 -1.21,0.209 -2.421,0.459 -3.673,0.626 -2.921,0.543 -5.843,1.002 -8.764,1.377 -1.795,0.292 -3.631,0.543 -5.425,0.793 -2.629,0.334 -5.259,0.668 -7.93,0.96 -1.628,0.167 -3.297,0.334 -4.925,0.459 -3.673,0.334 -7.387,0.626 -11.143,0.835 -1.252,0.083 -2.462,0.125 -3.673,0.167 -2.17,0.083 -4.382,0.167 -6.594,0.209 l 2.629,16.402 c 1.461,0 2.88,0 4.34,-0.083 -3.714,7.303 -4.591,14.732 -1.961,21.034 -0.167,-0.042 -0.334,-0.042 -0.501,-0.042 -0.25,0 -0.543,-0.042 -0.793,-0.083 -0.209,0 -0.417,0 -0.626,-0.042 -0.668,-0.042 -1.294,-0.083 -1.962,-0.167 -0.125,-0.042 -0.209,-0.042 -0.292,-0.042 -0.083,0 -0.125,-0.042 -0.209,-0.042 -0.668,-0.042 -1.335,-0.083 -2.003,-0.167 -0.751,-0.083 -1.461,-0.167 -2.17,-0.209 -0.083,0 -0.167,-0.042 -0.25,-0.042 -0.376,-0.042 -0.751,-0.083 -1.127,-0.125 -0.668,-0.083 -1.377,-0.167 -2.045,-0.292 -0.125,0 -0.25,-0.042 -0.376,-0.042 -1.711,-0.209 -3.422,-0.417 -5.133,-0.668 -0.167,-0.042 -0.292,-0.042 -0.459,-0.083 -0.543,-0.083 -1.085,-0.167 -1.628,-0.25 -0.292,-0.042 -0.543,-0.083 -0.835,-0.167 -0.209,0 -0.376,-0.042 -0.584,-0.083 h -0.042 c -2.295,-0.376 -4.591,-0.793 -6.845,-1.252 -0.167,-0.042 -0.334,-0.083 -0.543,-0.125 -0.125,-0.042 -0.292,-0.042 -0.459,-0.083 -1.127,-0.209 -2.212,-0.459 -3.297,-0.751 h -0.042 c -0.083,0 -0.167,-0.042 -0.25,-0.042 -0.543,-0.084 -1.043,-0.209 -1.544,-0.334 -0.626,-0.167 -1.252,-0.292 -1.836,-0.459 -1.544,-0.376 -3.047,-0.751 -4.507,-1.169 -0.25,-0.042 -0.459,-0.125 -0.668,-0.209 -0.125,0 -0.25,-0.042 -0.334,-0.083 -1.043,-0.292 -2.128,-0.584 -3.172,-0.918 -0.334,-0.125 -0.71,-0.209 -1.043,-0.334 -0.083,0 -0.167,-0.042 -0.25,-0.083 -0.918,-0.25 -1.836,-0.543 -2.713,-0.835 -0.376,-0.083 -0.71,-0.209 -1.085,-0.334 -0.083,-0.042 -0.167,-0.042 -0.25,-0.083 -0.751,-0.25 -1.544,-0.501 -2.337,-0.793 -0.751,-0.292 -1.502,-0.543 -2.295,-0.876 -1.085,-0.334 -2.128,-0.71 -3.172,-1.127 -0.042,0 -0.083,-0.042 -0.125,-0.042 -2.128,-0.876 -4.215,-1.711 -6.302,-2.671 0,0 0,0 -0.042,0 -0.417,-0.167 -0.793,-0.376 -1.21,-0.543 h -0.042 c -0.125,-0.042 -0.209,-0.084 -0.334,-0.125 -1.544,-0.751 -3.088,-1.461 -4.591,-2.254 -0.167,-0.084 -0.334,-0.167 -0.459,-0.25 1.461,-0.543 2.921,-1.21 4.382,-1.92 4.007,-1.961 7.637,-4.215 10.851,-6.761 5.092,1.294 10.392,2.379 15.901,3.255 l -2.963,-15.776 v -0.042 c -0.417,-0.042 -0.793,-0.125 -1.21,-0.209 -11.268,-1.669 -22.328,-4.34 -32.928,-8.263 -2.462,-0.876 -4.883,-1.836 -7.262,-2.88 -0.584,-0.25 -1.169,-0.501 -1.753,-0.793 -4.174,-1.878 -8.222,-3.965 -12.145,-6.344 -4.507,-2.754 -8.848,-5.843 -12.854,-9.348 l 3.172,13.772 c 0.751,0.709 1.502,1.419 2.295,2.129 -1.043,1.127 -2.003,2.295 -2.88,3.464 -0.501,-0.668 -1.002,-1.336 -1.502,-2.003 -0.626,-0.793 -1.21,-1.628 -1.795,-2.462 -1.085,-1.544 -2.128,-3.13 -3.088,-4.716 -1.419,-2.254 -2.713,-4.591 -3.84,-7.011 -5.384,-10.684 -9.557,-22.62 -13.397,-33.888 -0.668,-1.962 -1.21,-3.965 -1.669,-5.926 -0.459,-1.836 -0.793,-3.714 -1.085,-5.551 -0.709,-2.921 -1.377,-5.926 -2.045,-8.973 -0.292,-1.294 -0.543,-2.588 -0.793,-3.881 0.626,2.337 1.336,4.591 2.212,6.845 0.083,0.25 0.209,0.501 0.292,0.751 1.419,3.631 3.172,7.095 5.175,10.35 0.167,0.292 0.334,0.543 0.501,0.793 0.543,0.876 1.127,1.753 1.711,2.588 10.434,15.024 26.96,26.334 47.786,33.596 11.644,4.09 24.623,6.928 38.604,8.43 26.126,2.838 55.799,1.127 86.891,-5.342 1.294,-0.25 2.546,-0.543 3.84,-0.876 18.655,-4.09 37.77,-9.933 56.926,-17.528 18.614,-7.429 36.059,-16.026 52.085,-25.5 2.295,-1.377 4.549,-2.754 6.761,-4.132 3.714,-2.337 7.345,-4.674 10.893,-7.095 15.484,-10.559 29.298,-21.911 41.15,-33.763 1.169,-1.169 2.337,-2.337 3.506,-3.547 1.127,-1.169 2.212,-2.337 3.297,-3.506 4.466,-4.799 8.597,-9.682 12.353,-14.607 19.031,-24.79 29.256,-50.582 28.171,-74.287 v -0.042 c -0.042,-1.962 -0.209,-3.84 -0.459,-5.718 -0.083,-0.751 -0.167,-1.461 -0.292,-2.212 -0.751,-4.758 -1.961,-9.39 -3.714,-13.898 -0.083,-0.292 -0.167,-0.543 -0.292,-0.835 -1.085,-2.713 -2.337,-5.342 -3.756,-7.846 0.918,1.461 1.836,2.921 2.713,4.382 1.836,3.005 4.007,6.636 6.093,10.225 0.083,0.125 0.167,0.209 0.209,0.334 0.459,0.793 0.918,1.544 1.336,2.337 0.25,0.417 0.543,0.876 0.793,1.335 0.125,0.25 0.292,0.543 0.459,0.793 0,0.042 0.042,0.083 0.042,0.125 0.793,1.335 1.502,2.671 2.17,3.881 0.918,1.669 1.669,3.172 2.254,4.382 0.167,0.334 0.292,0.626 0.417,0.918 0.209,0.417 0.376,0.793 0.501,1.127 1.127,2.921 2.003,5.926 2.713,8.973 0.167,0.751 0.334,1.502 0.459,2.254 0.459,2.128 0.751,4.299 0.96,6.469 0.417,4.424 0.459,8.806 0.083,13.188 -0.042,1.002 -0.167,1.961 -0.292,2.963 -0.042,0.751 -0.167,1.503 -0.292,2.254 -0.084,0.835 -0.209,1.628 -0.376,2.462 -0.125,0.835 -0.292,1.628 -0.459,2.421 -0.042,0.334 -0.125,0.626 -0.167,0.96 -0.083,0.25 -0.125,0.543 -0.209,0.835 -0.125,0.626 -0.292,1.294 -0.459,1.92 -0.209,0.96 -0.459,1.878 -0.751,2.838 -0.25,1.002 -0.543,1.962 -0.876,2.963 -0.042,0.292 -0.167,0.626 -0.292,0.918 -0.292,0.96 -0.584,1.92 -0.96,2.88 -0.709,2.087 -1.544,4.132 -2.379,6.177 -0.125,0.292 -0.25,0.584 -0.376,0.835 -0.376,0.918 -0.793,1.795 -1.21,2.671 -0.417,1.002 -0.876,2.003 -1.377,2.963 -0.167,0.334 -0.334,0.668 -0.459,0.96 -0.543,1.002 -1.043,2.003 -1.586,3.005 v 0.042 c 0,0 0,0 -0.042,0 0,0.042 0,0.042 0,0.083 -1.085,2.045 -2.254,4.048 -3.422,6.052 l 7.345,14.357 c 0.626,-1.085 1.21,-2.128 1.753,-3.214 0.626,-1.085 1.169,-2.128 1.669,-3.172 0.501,-0.96 0.96,-1.92 1.419,-2.921 0.083,-0.083 0.125,-0.167 0.167,-0.292 0.793,-1.711 1.586,-3.422 2.254,-5.133 0.376,-0.876 0.709,-1.711 1.043,-2.546 0.334,-0.835 0.668,-1.669 0.96,-2.546 0.125,-0.292 0.209,-0.626 0.334,-0.918 0.167,-0.501 0.376,-1.043 0.543,-1.586 0.083,-0.292 0.209,-0.543 0.292,-0.835 0.751,-2.295 1.419,-4.633 1.961,-6.928 2.546,-1.878 4.883,-3.84 7.137,-5.885 0,0.793 -0.042,1.544 -0.042,2.295 0,1.294 -0.042,2.546 -0.125,3.84 -0.042,0.584 -0.083,1.169 -0.125,1.753 -0.042,1.043 -0.125,2.045 -0.25,3.088 0,0.042 0,0.042 0,0.083 -0.167,1.669 -0.376,3.339 -0.626,5.008 -0.125,0.751 -0.25,1.502 -0.376,2.254 -0.25,1.503 -0.543,2.963 -0.835,4.424 -0.292,1.294 -0.584,2.588 -0.918,3.84 -0.125,0.668 -0.292,1.294 -0.501,1.92 -0.334,1.377 -0.709,2.713 -1.127,4.048 -0.167,0.626 -0.376,1.252 -0.584,1.878 -0.334,1.085 -0.709,2.17 -1.085,3.255 -0.668,2.003 -1.419,3.965 -2.254,5.968 -0.543,1.377 -1.085,2.754 -1.711,4.09 -0.71,1.669 -1.461,3.297 -2.254,4.925 -5.634,11.686 -13.021,23.246 -21.994,34.431 -0.167,0.209 -0.334,0.459 -0.543,0.668 -0.334,-1.377 -0.793,-2.713 -1.419,-3.965 -2.295,-4.674 -6.344,-8.138 -11.56,-10.392 0.376,-0.417 0.793,-0.793 1.169,-1.21 v -0.042 l -9.39,-12.98 c -1.628,1.628 -3.297,3.255 -4.966,4.883 -2.337,2.212 -4.716,4.424 -7.178,6.552 l -0.042,0.042 c -4.966,4.382 -10.1,8.597 -15.4,12.604 -1.711,1.336 -3.464,2.629 -5.217,3.923 -2.295,1.669 -4.632,3.339 -7.011,4.925 -0.584,0.417 -1.127,0.793 -1.711,1.168 -0.918,0.668 -1.836,1.294 -2.796,1.878 -1.252,0.876 -2.504,1.711 -3.798,2.504 -2.504,1.628 -5.05,3.214 -7.596,4.758 -3.047,1.878 -6.093,3.673 -9.223,5.425 -2.087,1.21 -4.173,2.379 -6.302,3.506 -0.167,0.125 -0.334,0.209 -0.501,0.292 -1.669,0.918 -3.339,1.795 -5.05,2.671 l 4.507,17.32 c 1.002,-0.543 2.003,-1.043 3.005,-1.586 5.384,8.263 16.819,12.103 30.299,11.185 -1.962,1.294 -3.881,2.588 -5.885,3.84 -2.504,1.544 -5.05,3.088 -7.637,4.591 -7.679,4.549 -15.734,8.806 -24.081,12.813 -2.796,1.335 -5.592,2.629 -8.43,3.923 -1.461,0.626 -2.88,1.252 -4.299,1.878 -1.461,0.626 -2.921,1.21 -4.34,1.836 -1.461,0.584 -2.921,1.169 -4.424,1.795 -1.461,0.584 -2.921,1.127 -4.424,1.711 -2.963,1.127 -5.926,2.212 -8.889,3.255 -2.963,1.043 -5.926,2.045 -8.889,3.005 -6.636,2.128 -13.272,4.048 -19.824,5.718 -2.254,0.584 -4.466,1.127 -6.678,1.628 -2.548,0.58 -5.052,1.123 -7.556,1.665 z"
       style="fill:#db7102"
       id="path2"
       inkscape:connector-curvature="0" /><path
       d="m 484.271,170.185 c 6.302,12.896 -1.836,32.97 -18.488,48.537 v 0.042 c -2.254,2.045 -4.591,4.007 -7.137,5.885 -0.918,0.709 -1.836,1.377 -2.796,2.045 -4.466,3.088 -8.973,5.592 -13.438,7.512 0.501,-1.002 1.043,-2.003 1.544,-3.005 0.125,-0.292 0.292,-0.626 0.459,-0.96 0.501,-0.96 0.96,-1.962 1.377,-2.963 0.417,-0.876 0.835,-1.753 1.21,-2.671 0.125,-0.25 0.25,-0.543 0.376,-0.835 0.835,-2.045 1.669,-4.09 2.379,-6.177 0.376,-0.96 0.668,-1.92 0.96,-2.88 0.125,-0.292 0.25,-0.626 0.292,-0.918 0.334,-1.002 0.626,-1.961 0.876,-2.963 0.292,-0.96 0.543,-1.878 0.751,-2.838 0.167,-0.626 0.334,-1.294 0.459,-1.92 0.083,-0.292 0.125,-0.584 0.209,-0.835 0.042,-0.334 0.125,-0.626 0.167,-0.96 0.167,-0.793 0.334,-1.586 0.459,-2.421 0.167,-0.835 0.292,-1.628 0.376,-2.462 0.125,-0.751 0.25,-1.502 0.292,-2.254 0.125,-1.002 0.25,-1.961 0.292,-2.963 0.376,-4.382 0.334,-8.764 -0.083,-13.188 -0.209,-2.17 -0.501,-4.34 -0.96,-6.469 -0.125,-0.751 -0.292,-1.502 -0.459,-2.254 -0.709,-3.047 -1.586,-6.052 -2.713,-8.973 -0.125,-0.334 -0.292,-0.71 -0.501,-1.127 -0.125,-0.292 -0.25,-0.584 -0.417,-0.918 0.042,-0.042 0.083,-0.042 0.125,-0.042 15.609,-4.547 29.214,-1.625 34.389,8.975 z"
       style="fill:#ffe699"
       id="path4"
       inkscape:connector-curvature="0" /><path
       d="m 455.85,226.694 c 0.96,-0.668 1.878,-1.336 2.796,-2.045 -0.543,2.295 -1.21,4.632 -1.961,6.928 -0.083,0.292 -0.209,0.543 -0.292,0.835 -0.167,0.543 -0.376,1.085 -0.543,1.586 -0.125,0.292 -0.209,0.626 -0.334,0.918 -0.292,0.876 -0.626,1.711 -0.96,2.546 -0.334,0.835 -0.668,1.669 -1.043,2.546 -0.668,1.711 -1.461,3.422 -2.254,5.133 -0.042,0.125 -0.083,0.209 -0.167,0.292 -0.459,1.002 -0.918,1.961 -1.419,2.921 -0.543,1.043 -1.085,2.128 -1.669,3.172 -0.543,1.085 -1.127,2.128 -1.753,3.214 l -7.345,-14.357 c 1.169,-2.003 2.337,-4.007 3.422,-6.052 0.042,-0.042 0.042,-0.083 0.042,-0.083 v -0.042 h 0.042 c 4.465,-1.92 8.972,-4.424 13.438,-7.512 z"
       style="fill:#ad6301"
       id="path6"
       inkscape:connector-curvature="0" /><path
       d="m 401.178,231.827 c 5.092,-6.719 9.682,-13.814 13.605,-21.285 13.981,-26.627 17.946,-58.887 -1.127,-84.137 -14.732,-19.532 -38.646,-29.84 -62.017,-34.765 -33.596,-7.053 -69.154,-4.591 -102.5,2.754 -34.556,7.596 -68.069,20.408 -98.827,37.937 -30.341,17.32 -59.012,39.439 -80.088,67.568 -16.109,21.493 -27.962,47.243 -24.582,74.579 4.09,32.97 31.969,53.128 61.85,62.101 34.347,10.309 71.908,8.681 106.798,2.087 36.559,-6.928 72.117,-20.116 104.628,-38.187 30.466,-16.944 59.513,-38.98 80.881,-66.817 l 0.083,-0.125 c 0.125,-0.125 0.209,-0.292 0.334,-0.417 l 0.042,-0.042 z m 41.025,-67.819 c 1.085,23.705 -9.14,49.497 -28.171,74.287 -3.756,4.925 -7.888,9.808 -12.353,14.607 -1.085,1.168 -2.17,2.337 -3.297,3.506 -1.169,1.21 -2.337,2.379 -3.506,3.547 -11.853,11.853 -25.667,23.204 -41.15,33.763 -3.547,2.421 -7.178,4.758 -10.893,7.095 -2.212,1.377 -4.466,2.754 -6.761,4.132 -16.026,9.474 -33.471,18.071 -52.085,25.5 -19.156,7.596 -38.27,13.438 -56.926,17.528 -1.294,0.334 -2.546,0.626 -3.84,0.876 -31.092,6.469 -60.765,8.18 -86.891,5.342 -13.981,-1.502 -26.96,-4.34 -38.604,-8.43 C 76.9,338.499 60.374,327.189 49.94,312.165 c -0.584,-0.835 -1.169,-1.711 -1.711,-2.588 -0.167,-0.25 -0.334,-0.501 -0.501,-0.793 -2.003,-3.255 -3.756,-6.719 -5.175,-10.35 -0.083,-0.25 -0.209,-0.501 -0.292,-0.751 -0.876,-2.254 -1.586,-4.507 -2.212,-6.845 -0.292,-1.586 -0.584,-3.214 -0.835,-4.799 -0.083,-0.376 -0.125,-0.751 -0.167,-1.169 -0.167,-0.918 -0.292,-1.836 -0.376,-2.754 -0.084,-0.584 -0.167,-1.21 -0.209,-1.795 -0.125,-1.002 -0.209,-2.003 -0.25,-3.005 -0.083,-0.626 -0.125,-1.252 -0.125,-1.878 -0.042,-0.25 -0.042,-0.501 -0.042,-0.751 -0.083,-1.21 -0.125,-2.379 -0.125,-3.589 0,-2.421 0.125,-4.883 0.334,-7.345 -0.042,-0.042 -0.042,-0.042 0,-0.083 0.125,-1.169 0.292,-2.379 0.459,-3.547 0,-0.042 0,-0.042 0,-0.083 0.167,-1.21 0.376,-2.379 0.626,-3.589 v -0.125 c 0,-0.042 0,-0.042 0,-0.083 0.25,-1.294 0.543,-2.588 0.876,-3.923 0,-0.042 0,-0.042 0,-0.042 0.292,-1.294 0.668,-2.588 1.043,-3.923 v -0.125 c 0.376,-1.294 0.751,-2.588 1.21,-3.881 v -0.042 c 0.417,-1.294 0.876,-2.588 1.335,-3.881 0.626,-1.711 1.336,-3.422 2.045,-5.133 0.626,-1.461 1.294,-2.963 1.962,-4.424 0.083,-0.209 0.209,-0.417 0.292,-0.584 0.793,-1.669 1.586,-3.339 2.462,-4.966 0,-0.042 0,-0.084 0.042,-0.125 0.751,-1.377 1.502,-2.796 2.295,-4.173 1.002,-1.753 2.045,-3.506 3.13,-5.259 1.21,-1.962 2.462,-3.923 3.798,-5.843 1.002,-1.461 2.045,-2.921 3.088,-4.382 2.045,-2.796 4.173,-5.592 6.427,-8.389 12.771,-15.692 29.047,-30.925 48.162,-44.948 1.127,-0.793 2.295,-1.628 3.422,-2.421 4.883,-3.464 9.933,-6.844 15.15,-10.141 2.087,-1.335 4.215,-2.629 6.344,-3.881 5.092,-3.088 10.35,-6.051 15.734,-8.931 1.294,-0.71 2.629,-1.419 4.007,-2.087 2.671,-1.419 5.425,-2.754 8.18,-4.132 2.045,-1.002 4.132,-2.003 6.26,-2.963 3.464,-1.628 7.011,-3.172 10.601,-4.716 2.921,-1.252 5.843,-2.462 8.806,-3.631 2.17,-0.876 4.299,-1.711 6.469,-2.504 0.793,-0.292 1.628,-0.584 2.421,-0.918 1.043,-0.376 2.045,-0.751 3.088,-1.085 0.751,-0.292 1.461,-0.543 2.212,-0.793 1.168,-0.417 2.379,-0.835 3.547,-1.252 2.713,-0.918 5.426,-1.836 8.138,-2.671 3.172,-1.002 6.344,-1.962 9.516,-2.88 1.377,-0.376 2.754,-0.793 4.173,-1.169 2.504,-0.668 4.966,-1.336 7.47,-1.961 0.417,-0.125 0.876,-0.25 1.377,-0.376 2.17,-0.501 4.299,-1.043 6.469,-1.502 2.128,-0.501 4.299,-0.96 6.427,-1.419 2.337,-0.459 4.674,-0.918 7.011,-1.377 1.502,-0.25 3.005,-0.543 4.549,-0.793 1.544,-0.292 3.047,-0.501 4.549,-0.751 0.751,-0.125 1.461,-0.209 2.212,-0.334 2.462,-0.376 4.925,-0.709 7.345,-1.002 32.511,-4.09 62.602,-2.629 87.726,3.965 0.626,0.125 1.252,0.292 1.878,0.501 1.336,0.376 2.671,0.751 4.007,1.169 1.336,0.417 2.629,0.835 3.923,1.294 0.167,0.042 0.334,0.084 0.459,0.167 1.21,0.376 2.421,0.835 3.631,1.294 0.876,0.292 1.669,0.626 2.504,1.002 h 0.042 c 0.417,0.125 0.793,0.292 1.21,0.459 0.083,0.042 0.125,0.042 0.209,0.083 1.085,0.417 2.087,0.876 3.088,1.336 0.125,0.042 0.209,0.083 0.334,0.125 0.167,0.083 0.334,0.167 0.501,0.25 0.918,0.376 1.795,0.751 2.671,1.21 0.918,0.417 1.795,0.876 2.671,1.336 0.042,0 0.083,0.042 0.125,0.042 0.042,0.042 0.083,0.042 0.125,0.083 1.002,0.501 2.003,1.043 3.005,1.544 0.626,0.376 1.252,0.709 1.878,1.085 0.626,0.376 1.252,0.751 1.878,1.127 0.501,0.292 0.96,0.584 1.419,0.876 0.042,0.042 0.083,0.042 0.083,0.042 0.125,0.083 0.209,0.125 0.334,0.25 0.751,0.417 1.502,0.918 2.254,1.461 0.083,0.083 0.167,0.125 0.25,0.167 0.417,0.292 0.835,0.584 1.252,0.876 0.042,0.042 0.042,0.042 0.042,0.042 0.96,0.626 1.878,1.294 2.755,2.003 0.083,0.083 0.167,0.125 0.25,0.209 0.751,0.584 1.461,1.168 2.212,1.753 1.085,0.876 2.128,1.795 3.172,2.713 0.042,0.042 0.083,0.083 0.125,0.125 0.71,0.709 1.461,1.419 2.17,2.128 0.376,0.376 0.751,0.751 1.127,1.127 0.334,0.334 0.668,0.668 1.002,1.043 l 0.042,0.042 c 0.042,0 0.042,0.042 0.042,0.042 0,0.042 0,0.042 0.042,0.042 0.501,0.543 1.002,1.127 1.502,1.711 0.125,0.125 0.25,0.292 0.376,0.417 0.501,0.584 1.002,1.21 1.503,1.836 0.751,0.918 1.461,1.878 2.17,2.838 0.083,0.125 0.167,0.209 0.25,0.334 0.626,0.835 1.252,1.753 1.795,2.629 0.042,0.083 0.084,0.125 0.125,0.209 h 0.042 c 0.334,0.543 0.709,1.127 1.043,1.669 0.417,0.626 0.835,1.252 1.21,1.878 0.125,0.125 0.209,0.25 0.25,0.417 1.419,2.504 2.671,5.133 3.756,7.846 0.125,0.292 0.209,0.543 0.292,0.835 1.753,4.507 2.963,9.14 3.714,13.898 0.125,0.751 0.209,1.461 0.292,2.212 0.25,1.878 0.417,3.756 0.459,5.718 v 0.038 z"
       style="fill:#bae5e6"
       id="path8"
       inkscape:connector-curvature="0" /><path
       d="m 430.684,101.365 c 3.422,6.97 2.629,15.984 -1.461,25.291 -0.083,-0.125 -0.167,-0.209 -0.25,-0.334 -0.71,-0.96 -1.419,-1.92 -2.17,-2.838 -0.501,-0.626 -1.002,-1.252 -1.503,-1.836 -0.125,-0.125 -0.25,-0.292 -0.376,-0.417 -0.501,-0.584 -1.002,-1.168 -1.502,-1.711 v -0.042 c -0.042,-0.042 -0.042,0 -0.042,0 0,0 0,-0.042 -0.042,-0.042 l -0.042,-0.042 c -0.334,-0.376 -0.668,-0.71 -1.002,-1.043 -0.376,-0.376 -0.751,-0.751 -1.127,-1.127 -0.71,-0.709 -1.461,-1.419 -2.17,-2.128 -0.042,-0.042 -0.083,-0.084 -0.125,-0.125 -1.043,-0.918 -2.087,-1.836 -3.172,-2.713 -0.751,-0.584 -1.461,-1.168 -2.212,-1.753 -0.083,-0.083 -0.167,-0.125 -0.25,-0.209 -0.876,-0.71 -1.795,-1.377 -2.755,-2.003 0,0 0,0 -0.042,-0.042 -0.417,-0.292 -0.835,-0.584 -1.252,-0.876 -0.083,-0.042 -0.167,-0.083 -0.25,-0.167 -0.751,-0.543 -1.503,-1.043 -2.254,-1.461 -0.125,-0.125 -0.209,-0.167 -0.334,-0.25 0,0 -0.042,0 -0.083,-0.042 -0.459,-0.292 -0.918,-0.584 -1.419,-0.876 -0.626,-0.376 -1.252,-0.751 -1.878,-1.127 -0.626,-0.376 -1.252,-0.71 -1.878,-1.085 -1.002,-0.501 -2.003,-1.043 -3.005,-1.544 -0.042,-0.042 -0.083,-0.042 -0.125,-0.083 -0.042,0 -0.084,-0.042 -0.125,-0.042 -0.876,-0.459 -1.753,-0.918 -2.671,-1.336 -0.876,-0.459 -1.753,-0.835 -2.671,-1.21 -0.167,-0.083 -0.334,-0.167 -0.501,-0.25 -0.125,-0.042 -0.209,-0.083 -0.334,-0.125 -1.002,-0.459 -2.003,-0.918 -3.088,-1.336 -0.083,-0.042 -0.125,-0.042 -0.209,-0.083 -0.417,-0.167 -0.793,-0.334 -1.21,-0.459 19.241,-8.891 37.353,-7.138 43.53,5.466 z"
       style="fill:#ffe699"
       id="path10"
       inkscape:connector-curvature="0" /><path
       d="m 430.434,306.532 c 3.673,14.941 -10.141,34.598 -32.929,45.824 -9.223,4.507 -18.614,7.011 -27.169,7.596 0,0 -0.042,0.042 -0.083,0.042 -13.48,0.918 -24.915,-2.921 -30.299,-11.185 -0.417,-0.626 -0.835,-1.336 -1.169,-2.045 -2.462,-5.008 -2.588,-10.726 -0.793,-16.652 2.128,-1.127 4.215,-2.295 6.302,-3.506 3.13,-1.753 6.177,-3.547 9.223,-5.425 2.546,-1.544 5.092,-3.13 7.596,-4.758 1.294,-0.793 2.546,-1.628 3.798,-2.504 0.96,-0.584 1.878,-1.21 2.796,-1.878 0.584,-0.376 1.127,-0.751 1.711,-1.168 3.631,8.347 8.055,12.353 10.642,9.724 2.629,-2.588 -0.71,-9.349 -3.631,-14.649 1.753,-1.294 3.506,-2.588 5.217,-3.923 5.3,-4.007 10.434,-8.222 15.4,-12.604 l 0.042,-0.042 c 7.679,-0.584 14.732,0.376 20.366,2.796 5.217,2.254 9.265,5.718 11.56,10.392 0.627,1.252 1.086,2.587 1.42,3.965 z"
       style="fill:#ffe699"
       id="path12"
       inkscape:connector-curvature="0" /><path
       d="m 418.623,290.923 v 0.042 c -0.376,0.417 -0.793,0.793 -1.169,1.21 -5.634,-2.421 -12.687,-3.38 -20.366,-2.796 2.462,-2.128 4.841,-4.34 7.178,-6.552 1.669,-1.628 3.339,-3.255 4.966,-4.883 z"
       style="fill:#ad6301"
       id="path14"
       inkscape:connector-curvature="0" /><path
       d="m 413.656,126.406 c 19.073,25.249 15.108,57.51 1.127,84.137 -3.923,7.47 -8.514,14.565 -13.605,21.285 l -0.918,1.252 -0.042,0.042 c -0.125,0.125 -0.209,0.292 -0.334,0.417 l -0.083,0.125 c -21.368,27.837 -50.415,49.873 -80.881,66.817 -32.511,18.071 -68.069,31.259 -104.628,38.187 -34.89,6.594 -72.451,8.222 -106.798,-2.087 -29.882,-8.973 -57.76,-29.131 -61.85,-62.101 -3.381,-27.336 8.472,-53.086 24.582,-74.579 21.076,-28.129 49.747,-50.248 80.088,-67.568 30.758,-17.528 64.271,-30.341 98.827,-37.937 33.346,-7.345 68.904,-9.808 102.5,-2.754 23.369,4.924 47.283,15.232 62.015,34.764 z"
       style="fill:#fcd9a6"
       id="path16"
       inkscape:connector-curvature="0" /><path
       d="m 376.429,305.947 c 2.921,5.3 6.26,12.061 3.631,14.649 -2.588,2.629 -7.011,-1.377 -10.642,-9.724 2.379,-1.586 4.716,-3.255 7.011,-4.925 z"
       style="fill:#a18e4a"
       id="path18"
       inkscape:connector-curvature="0" /><path
       d="m 339.953,348.809 c -1.002,0.543 -2.003,1.043 -3.005,1.586 l -4.507,-17.32 c 1.711,-0.876 3.38,-1.753 5.05,-2.671 0.167,-0.083 0.334,-0.167 0.501,-0.292 -1.795,5.926 -1.669,11.644 0.793,16.652 0.334,0.709 0.751,1.419 1.168,2.045 z"
       style="fill:#ad6301"
       id="path20"
       inkscape:connector-curvature="0" /><path
       d="m 272.677,375.978 0.167,0.584 c -0.918,0.292 -1.878,0.584 -2.796,0.835 -0.167,-2.504 -0.835,-4.925 -1.92,-7.178 -1.669,-3.38 -4.215,-6.135 -7.47,-8.222 2.629,-0.751 5.217,-1.544 7.804,-2.337 z"
       style="fill:#ad6301"
       id="path22"
       inkscape:connector-curvature="0" /><path
       d="m 270.048,377.397 c 0.835,9.682 -4.925,20.826 -15.15,30.257 h -0.042 c -5.05,4.716 -11.227,8.931 -18.238,12.395 -24.915,12.186 -51.166,9.682 -58.679,-5.592 -0.209,-0.376 -0.376,-0.751 -0.501,-1.169 -2.629,-6.302 -1.753,-13.731 1.961,-21.034 3.005,-6.135 7.971,-12.187 14.44,-17.529 1.628,-0.125 3.297,-0.292 4.925,-0.459 2.671,-0.292 5.3,-0.626 7.93,-0.96 1.795,-0.25 3.631,-0.501 5.425,-0.793 l 0.125,1.002 c 2.17,8.514 1.377,18.822 7.262,18.822 5.885,0 5.467,-9.182 1.377,-21.159 v -0.042 c 1.252,-0.167 2.462,-0.417 3.673,-0.626 1.419,-0.25 2.838,-0.543 4.299,-0.793 1.836,-0.376 3.631,-0.751 5.467,-1.127 1.795,-0.376 3.547,-0.751 5.342,-1.168 0.793,-0.167 1.586,-0.376 2.421,-0.543 1.753,-0.417 3.506,-0.835 5.259,-1.294 4.466,-1.085 8.889,-2.295 13.313,-3.589 3.255,2.087 5.801,4.841 7.47,8.222 1.087,2.254 1.754,4.675 1.921,7.179 z"
       style="fill:#ffe699"
       id="path24"
       inkscape:connector-curvature="0" /><path
       d="m 220.885,371.178 c 4.09,11.978 4.507,21.159 -1.377,21.159 -5.884,0 -5.092,-10.308 -7.262,-18.822 l -0.125,-1.002 c 2.921,-0.376 5.843,-0.835 8.764,-1.377 z"
       style="fill:#a18e4a"
       id="path26"
       inkscape:connector-curvature="0" /><path
       d="m 182.698,375.56 c 3.756,-0.209 7.47,-0.501 11.143,-0.835 -6.469,5.342 -11.435,11.394 -14.44,17.529 -1.461,0.083 -2.88,0.083 -4.34,0.083 l -2.629,-16.402 c 2.212,-0.042 4.424,-0.125 6.594,-0.209 1.21,-0.04 2.42,-0.082 3.672,-0.166 z"
       style="fill:#ad6301"
       id="path28"
       inkscape:connector-curvature="0" /><path
       d="m 134.829,373.766 2.963,15.776 c -5.509,-0.876 -10.809,-1.962 -15.901,-3.255 5.008,-3.84 9.015,-8.263 11.727,-12.771 0.417,0.083 0.793,0.167 1.21,0.209 v 0.041 z"
       style="fill:#ad6301"
       id="path30"
       inkscape:connector-curvature="0" /><path
       d="m 133.618,373.515 c -2.713,4.507 -6.719,8.931 -11.727,12.771 -3.214,2.546 -6.844,4.799 -10.851,6.761 -1.461,0.71 -2.921,1.377 -4.382,1.92 -18.363,7.429 -36.643,4.883 -42.152,-6.344 -3.339,-6.845 -1.252,-15.442 4.758,-23.371 0.876,-1.168 1.836,-2.337 2.88,-3.464 2.128,-2.295 4.633,-4.549 7.387,-6.552 3.923,2.379 7.971,4.466 12.145,6.344 0,6.177 9.015,16.36 9.015,3.673 10.599,3.922 21.659,6.593 32.927,8.262 z"
       style="fill:#ffe699"
       id="path32"
       inkscape:connector-curvature="0" /><path
       d="m 100.69,365.252 c 0,12.687 -9.015,2.504 -9.015,-3.673 0.584,0.292 1.168,0.543 1.753,0.793 2.379,1.044 4.8,2.003 7.262,2.88 z"
       style="fill:#a18e4a"
       id="path34"
       inkscape:connector-curvature="0" /><path
       d="m 79.53,355.236 c -2.754,2.003 -5.259,4.257 -7.387,6.552 -0.793,-0.71 -1.544,-1.419 -2.295,-2.129 l -3.172,-13.772 c 4.007,3.506 8.347,6.594 12.854,9.349 z"
       style="fill:#ad6301"
       id="path36"
       inkscape:connector-curvature="0" /><path
       d="m 43.973,309.244 c -7.303,0.334 -13.898,-2.921 -16.861,-8.931 -4.174,-8.556 0.584,-19.49 10.684,-24.707 0.167,5.175 0.918,10.267 2.254,15.233 0.25,1.294 0.501,2.588 0.793,3.881 0.668,3.047 1.335,6.051 2.045,8.973 0.292,1.837 0.626,3.715 1.085,5.551 z"
       style="fill:#ffe699"
       id="path38"
       inkscape:connector-curvature="0" /></g></svg>